HIERARCHY
ROOT joint_Root
{
	OFFSET 0.0 0.0 0.0
	CHANNELS 6 Xposition Yposition Zposition Zrotation Xrotation Yrotation 
	JOINT Hips
	{
		OFFSET -17.1583 93.1646 452.98
		CHANNELS 6 Xposition Yposition Zposition Zrotation Xrotation Yrotation 
		JOINT Spine
		{
			OFFSET 15.7357 0.0 0.0
			CHANNELS 6 Xposition Yposition Zposition Zrotation Xrotation Yrotation 
			JOINT Chest
			{
				OFFSET 8.98455 -0.406207 0.0
				CHANNELS 6 Xposition Yposition Zposition Zrotation Xrotation Yrotation 
				JOINT Neck
				{
					OFFSET 16.3773 0.0 0.0
					CHANNELS 6 Xposition Yposition Zposition Zrotation Xrotation Yrotation 
					JOINT Head
					{
						OFFSET 6.45672 0.0 0.0
						CHANNELS 6 Xposition Yposition Zposition Zrotation Xrotation Yrotation 
						End Site
						{
							OFFSET 0.0 0.0 0.0
						}
					}
				}
				JOINT Shoulder_L
				{
					OFFSET 12.9942 -0.242716 4.98039
					CHANNELS 6 Xposition Yposition Zposition Zrotation Xrotation Yrotation 
					JOINT UpperArm_L
					{
						OFFSET 5.34809 0.0 0.0
						CHANNELS 6 Xposition Yposition Zposition Zrotation Xrotation Yrotation 
						JOINT LowerArm_L
						{
							OFFSET 24.3286 1.87007e-05 0.0
							CHANNELS 6 Xposition Yposition Zposition Zrotation Xrotation Yrotation 
							JOINT Hand_L
							{
								OFFSET 22.2916 0.0 0.0
								CHANNELS 6 Xposition Yposition Zposition Zrotation Xrotation Yrotation 
								End Site
								{
									OFFSET 0.0 0.0 0.0
								}
							}
						}
					}
				}
				JOINT Shoulder_R
				{
					OFFSET 12.9945 -0.242716 -4.98039
					CHANNELS 6 Xposition Yposition Zposition Zrotation Xrotation Yrotation 
					JOINT UpperArm_R
					{
						OFFSET -5.34813 0.0 0.0
						CHANNELS 6 Xposition Yposition Zposition Zrotation Xrotation Yrotation 
						JOINT LowerArm_R
						{
							OFFSET -24.3289 0.000322201 0.0
							CHANNELS 6 Xposition Yposition Zposition Zrotation Xrotation Yrotation 
							JOINT Hand_R
							{
								OFFSET -22.2915 -0.000108084 0.0
								CHANNELS 6 Xposition Yposition Zposition Zrotation Xrotation Yrotation 
								End Site
								{
									OFFSET 0.0 0.0 0.0
								}
							}
						}
					}
				}
			}
		}
		JOINT UpperLeg_L
		{
			OFFSET -2.19248 -6.46944 0.0
			CHANNELS 6 Xposition Yposition Zposition Zrotation Xrotation Yrotation 
			JOINT LowerLeg_L
			{
				OFFSET 39.0811 0.0 -1.23785e-05
				CHANNELS 6 Xposition Yposition Zposition Zrotation Xrotation Yrotation 
				JOINT Foot_L
				{
					OFFSET 40.9854 0.0 -1.26872e-05
					CHANNELS 6 Xposition Yposition Zposition Zrotation Xrotation Yrotation 
					JOINT Toes_L
					{
						OFFSET 11.7543 0.0 0.0
						CHANNELS 6 Xposition Yposition Zposition Zrotation Xrotation Yrotation 
						End Site
						{
							OFFSET 0.0 0.0 0.0
						}
					}
				}
			}
		}
		JOINT UpperLeg_R
		{
			OFFSET -2.19251 6.46944 0.0
			CHANNELS 6 Xposition Yposition Zposition Zrotation Xrotation Yrotation 
			JOINT LowerLeg_R
			{
				OFFSET -39.0811 -0.00228153 -0.0401928
				CHANNELS 6 Xposition Yposition Zposition Zrotation Xrotation Yrotation 
				JOINT Foot_R
				{
					OFFSET -40.9854 0.0 0.0
					CHANNELS 6 Xposition Yposition Zposition Zrotation Xrotation Yrotation 
					JOINT Toes_R
					{
						OFFSET -11.7543 0.0 0.0
						CHANNELS 6 Xposition Yposition Zposition Zrotation Xrotation Yrotation 
						End Site
						{
							OFFSET 0.0 0.0 0.0
						}
					}
				}
			}
		}
	}
}
MOTION
Frames:	6
Frame Time:	0.0333333
0.000000 0.000000 0.000000 0.000000 0.000000 -0.000000 -0.034274 93.056300 -0.506584 87.290600 -2.284180 0.691811 15.735700 0.000005 -0.000001 72.143800 87.192900 -70.649300 8.984550 -0.406207 -0.000000 -2.396900 -1.853400 2.950230 16.377300 -0.000001 -0.000001 4.744840 2.593180 -2.024260 6.456720 -0.000001 -0.000000 1.675920 2.338460 -1.706740 12.994200 -0.242716 4.980390 -92.490100 7.191610 -70.843900 5.348090 -0.000007 -0.000001 -74.979400 13.082600 2.214570 24.328600 0.000019 0.000005 13.173800 26.008700 -28.092300 22.291600 -0.000001 0.000005 -0.920279 5.002380 7.268870 12.994500 -0.242716 -4.980390 88.497000 4.660600 -72.103500 -5.348130 -0.000001 -0.000004 -71.979900 13.273100 0.000239 -24.328900 0.000322 -0.000009 4.247990 8.840090 -25.800400 -22.291500 -0.000108 -0.000004 2.370880 5.215090 2.338410 -2.192480 -6.469440 -0.000000 -177.128000 0.386874 -1.883240 39.081100 -0.000007 -0.000012 0.166583 -0.511362 18.044000 40.985400 -0.000006 -0.000013 2.761950 8.540020 -70.980600 11.754300 -0.000000 0.000003 -0.000471 0.175203 -9.470250 -2.192510 6.469440 -0.000001 -176.025000 4.219740 -178.833000 -39.081100 -0.002282 -0.040193 0.032350 -0.131843 12.411500 -40.985400 0.000008 0.000006 -0.896587 3.651920 -68.469400 -11.754300 -0.000006 -0.000006 -0.009257 0.265669 -5.781420
0.000000 0.000000 0.000000 0.000000 0.000000 -0.000000 -0.151310 93.072500 -0.531690 87.315400 -2.164230 0.620416 15.735700 0.000005 -0.000001 72.320200 87.142400 -70.810300 8.984550 -0.406207 -0.000000 -2.294770 -1.867710 2.982550 16.377300 -0.000001 -0.000001 4.586530 2.500070 -1.844320 6.456720 -0.000001 -0.000000 1.369110 2.287850 -1.513880 12.994200 -0.242716 4.980390 -92.506500 7.234550 -70.832100 5.348090 -0.000007 -0.000001 -74.601800 10.912700 2.537930 24.328600 0.000019 0.000005 14.280900 25.764700 -30.351700 22.291600 -0.000001 0.000005 0.004783 5.008400 7.141040 12.994500 -0.242716 -4.980390 88.465100 4.738510 -72.028900 -5.348130 -0.000001 -0.000004 -71.475300 9.663220 0.406255 -24.328900 0.000322 -0.000009 5.201760 9.490020 -28.908800 -22.291500 -0.000108 -0.000004 1.764620 5.179480 3.229720 -2.192480 -6.469440 -0.000000 -177.074000 0.463247 -1.925040 39.081100 -0.000007 -0.000012 0.164075 -0.507623 17.912200 40.985400 -0.000006 -0.000013 2.672020 8.554010 -70.890300 11.754300 -0.000000 0.000003 -0.000264 0.171950 -9.602390 -2.192510 6.469440 -0.000001 -175.971000 4.293470 -178.846000 -39.081100 -0.002282 -0.040193 0.030439 -0.124818 12.251700 -40.985400 0.000008 0.000006 -0.945929 3.627250 -68.347700 -11.754300 -0.000006 -0.000006 -0.009255 0.265652 -5.782140
0.000000 0.000000 0.000000 0.000000 0.000000 -0.000000 -0.267749 93.091400 -0.588037 87.327900 -2.033580 0.468401 15.735700 0.000005 -0.000001 72.030900 87.109800 -70.502700 8.984550 -0.406207 -0.000000 -2.240680 -1.916150 3.018940 16.377300 -0.000001 -0.000001 4.383960 2.348730 -1.573380 6.456720 -0.000001 -0.000000 0.949751 2.218410 -1.133480 12.994200 -0.242716 4.980390 -92.524200 7.279380 -70.816500 5.348090 -0.000007 -0.000001 -74.157100 7.654330 3.511180 24.328600 0.000019 0.000005 16.592800 25.392400 -34.793400 22.291600 -0.000001 0.000005 1.392910 5.027120 6.738620 12.994500 -0.242716 -4.980390 88.478200 4.671150 -71.932200 -5.348130 -0.000001 -0.000004 -71.178100 5.167920 1.099760 -24.328900 0.000322 -0.000009 6.365620 9.747160 -33.385900 -22.291500 -0.000108 -0.000004 1.375550 5.118020 4.695560 -2.192480 -6.469440 -0.000000 -176.995000 0.517846 -2.075790 39.081100 -0.000007 -0.000012 0.163663 -0.509412 17.811400 40.985400 -0.000006 -0.000013 2.580230 8.624330 -70.873700 11.754300 -0.000000 0.000003 -0.000395 0.174027 -9.517990 -2.192510 6.469440 -0.000001 -175.890000 4.454430 -178.922000 -39.081100 -0.002282 -0.040193 0.028403 -0.117841 12.009100 -40.985400 0.000008 0.000006 -0.854899 3.615170 -68.149100 -11.754300 -0.000006 -0.000006 -0.008968 0.263422 -5.873290
0.000000 0.000000 0.000000 0.000000 0.000000 -0.000000 -0.389053 93.104500 -0.644749 87.349200 -1.939090 0.301799 15.735700 0.000005 -0.000001 71.830200 87.082100 -70.284400 8.984550 -0.406207 -0.000000 -2.193420 -1.953580 3.054130 16.377300 -0.000001 -0.000001 4.170030 2.132310 -1.159240 6.456720 -0.000001 -0.000000 0.467540 2.095100 -0.670051 12.994200 -0.242716 4.980390 -92.561900 7.340900 -70.700700 5.348090 -0.000007 -0.000001 -73.638300 3.846440 4.991160 24.328600 0.000019 0.000005 19.250100 23.631000 -41.062700 22.291600 -0.000001 0.000005 3.737850 5.022790 6.830220 12.994500 -0.242716 -4.980390 88.521900 4.492090 -71.765200 -5.348130 -0.000001 -0.000004 -70.897700 1.033640 1.926140 -24.328900 0.000322 -0.000009 7.596620 9.466310 -39.039800 -22.291500 -0.000108 -0.000004 2.260460 5.070900 5.770280 -2.192480 -6.469440 -0.000000 -176.920000 0.558269 -2.259990 39.081100 -0.000007 -0.000012 0.161097 -0.503814 17.732200 40.985400 -0.000006 -0.000013 2.490850 8.699100 -70.779900 11.754300 -0.000000 0.000003 -0.000350 0.173317 -9.546830 -2.192510 6.469440 -0.000001 -175.806000 4.488170 -179.074000 -39.081100 -0.002282 -0.040193 0.028782 -0.120631 11.911700 -40.985400 0.000008 0.000006 -0.828652 3.595010 -68.113400 -11.754300 -0.000006 -0.000006 -0.009389 0.266684 -5.739960
0.000000 0.000000 0.000000 0.000000 0.000000 -0.000000 -0.509039 93.122600 -0.704645 87.353200 -1.896040 0.152490 15.735700 0.000005 -0.000001 72.152900 87.073000 -70.588700 8.984550 -0.406207 -0.000000 -2.166040 -1.929110 3.091710 16.377300 -0.000001 -0.000001 4.098040 1.864780 -0.663911 6.456720 -0.000001 -0.000000 -0.132955 1.908480 0.014430 12.994200 -0.242716 4.980390 -92.563600 7.282210 -70.545800 5.348090 -0.000007 -0.000001 -73.080000 0.162193 6.436910 24.328600 0.000019 0.000005 22.813600 21.830600 -48.518700 22.291600 -0.000001 0.000005 5.953750 5.004330 7.222750 12.994500 -0.242716 -4.980390 88.568500 4.323830 -71.661600 -5.348130 -0.000001 -0.000004 -70.452500 -2.664860 2.784850 -24.328900 0.000322 -0.000009 9.348230 9.289850 -45.559900 -22.291500 -0.000108 -0.000004 3.756990 5.047870 6.282660 -2.192480 -6.469440 -0.000000 -176.834000 0.587836 -2.402170 39.081100 -0.000007 -0.000012 0.159614 -0.502435 17.624400 40.985400 -0.000006 -0.000013 2.395260 8.736660 -70.705400 11.754300 -0.000000 0.000003 -0.000204 0.170989 -9.641400 -2.192510 6.469440 -0.000001 -175.717000 4.590890 -179.158000 -39.081100 -0.002282 -0.040193 0.027737 -0.117992 11.684300 -40.985400 0.000008 0.000006 -0.725368 3.639200 -67.925800 -11.754300 -0.000006 -0.000006 -0.008969 0.263437 -5.872690
0.000000 0.000000 0.000000 0.000000 0.000000 -0.000000 -0.629535 93.133500 -0.752618 87.349800 -1.762420 0.089408 15.735700 0.000005 -0.000001 72.515500 87.037300 -70.931600 8.984550 -0.406207 -0.000000 -2.086430 -1.915900 3.132770 16.377300 -0.000001 -0.000001 4.070720 1.596890 -0.208102 6.456720 -0.000001 -0.000000 -0.814982 1.563580 1.013240 12.994200 -0.242716 4.980390 -92.526800 7.109720 -70.376300 5.348090 -0.000007 -0.000001 -72.446500 -2.875560 7.465590 24.328600 0.000019 0.000005 27.395200 20.054400 -56.504100 22.291600 -0.000001 0.000005 7.860430 4.968140 7.984660 12.994500 -0.242716 -4.980390 88.620100 4.153770 -71.604700 -5.348130 -0.000001 -0.000004 -69.793000 -5.625230 3.544090 -24.328900 0.000322 -0.000009 11.525500 8.959030 -52.630400 -22.291500 -0.000108 -0.000004 6.008880 5.049990 6.242360 -2.192480 -6.469440 -0.000000 -176.745000 0.818619 -2.488470 39.081100 -0.000007 -0.000012 0.159581 -0.503400 17.589300 40.985400 -0.000006 -0.000013 2.286620 8.699450 -70.723000 11.754300 -0.000000 0.000003 -0.000284 0.172278 -9.589030 -2.192510 6.469440 -0.000001 -175.631000 4.878030 -179.161000 -39.081100 -0.002282 -0.040193 0.026819 -0.115404 11.501500 -40.985400 0.000008 0.000006 -0.606510 3.732730 -67.832100 -11.754300 -0.000006 -0.000006 -0.009190 0.265148 -5.802750
